<?xml version="1.0"?>
<svg width="295" height="295" xmlns="http://www.w3.org/2000/svg" xmlns:svg="http://www.w3.org/2000/svg">
 <!-- Created with SVG-edit - https://github.com/SVG-Edit/svgedit-->
 <g class="layer">
  <title>Layer 1</title>
  <path d="m147.69961,0.287913c-81.2877,0 -147.4117,66.1302 -147.4117,147.4115c0,81.2815 66.124,147.4117 147.4117,147.4117c81.2877,0 147.4116,-66.1302 147.4116,-147.4117c0,-81.2813 -66.1239,-147.4115 -147.4116,-147.4115zm0,282.5391c-74.5097,0 -135.1276,-60.6179 -135.1276,-135.1276c0,-74.5097 60.6179,-135.1275 135.1276,-135.1275c74.5097,0 135.1275,60.6178 135.1275,135.1275c0,74.5097 -60.6178,135.1276 -135.1275,135.1276z" fill="white" id="svg_4" stroke-width="0.575827"/>
  <path d="m206.30201,142.534813l-85.9899,-55.2793c-1.8836,-1.2294 -4.3187,-1.2957 -6.2622,-0.228c-1.9796,1.0796 -3.2032,3.1434 -3.2032,5.3926l0,110.5587c0,2.2491 1.2236,4.3129 3.2032,5.3926c0.9116,0.4982 1.9314,0.7498 2.9391,0.7498c1.1517,0 2.3154,-0.3244 3.3231,-0.9778l85.9899,-55.2794c1.7517,-1.1275 2.8193,-3.0772 2.8193,-5.1644c0,-2.0875 -1.0676,-4.0367 -2.8193,-5.1648zm-83.1713,49.1912l0,-88.0531l68.4878,44.0265l-68.4878,44.0266z" fill="white" id="svg_3" stroke-width="0.575827"/>
 </g>
</svg>
